<svg width="250" height="250" viewBox="0 0 250 250" fill="none" xmlns="http://www.w3.org/2000/svg">
<path d="M236.618 181.271C224.603 205.103 205.276 224.464 181.465 236.52C157.654 248.576 130.609 252.694 104.288 248.272C77.9679 243.85 53.7539 231.119 35.1901 211.944C16.6263 192.768 4.68755 168.154 1.12107 141.704C-2.44541 115.254 2.54767 88.3564 15.3695 64.9487C28.1914 41.5409 48.1688 22.8516 72.378 11.616C96.5872 0.380425 123.757 -2.8115 149.911 2.5074C176.065 7.8263 199.83 21.3767 217.728 41.1755L171.364 83.0878C162.415 73.1884 150.533 66.4131 137.456 63.7537C124.379 61.0943 110.794 62.6902 98.689 68.308C86.5844 73.9258 76.5957 83.2705 70.1848 94.9743C63.7738 106.678 61.2773 120.127 63.0605 133.352C64.8438 146.577 70.8132 158.884 80.095 168.472C89.3769 178.06 101.484 184.425 114.644 186.636C127.804 188.847 141.327 186.788 153.232 180.76C165.138 174.732 174.802 165.051 180.809 153.135L236.618 181.271Z" fill="black"/>
<path d="M202.604 163.946C194.172 180.641 180.613 194.195 163.915 202.62C147.217 211.045 128.259 213.898 109.821 210.76C91.3828 207.622 74.4353 198.659 61.4638 185.185C48.4924 171.711 40.1796 154.435 37.7447 135.891C35.3098 117.348 38.8808 98.5114 47.9341 82.1454C56.9874 65.7795 71.0465 52.745 88.0495 44.9537C105.052 37.1624 124.105 35.0243 142.412 38.8529C160.719 42.6815 177.317 52.2754 189.773 66.2275L157.137 95.3637C150.909 88.3877 142.609 83.5908 133.456 81.6765C124.302 79.7622 114.776 80.8312 106.275 84.7269C97.7732 88.6225 90.7437 95.1397 86.217 103.323C81.6904 111.506 79.9049 120.924 81.1223 130.196C82.3398 139.468 86.4962 148.106 92.9819 154.843C99.4676 161.58 107.941 166.061 117.16 167.63C126.379 169.199 135.859 167.772 144.208 163.56C152.557 159.347 159.336 152.57 163.552 144.223L202.604 163.946Z" fill="#FE0000"/>
<path d="M168.856 84.8413C160.38 75.3612 149.089 68.8461 136.64 66.2516C124.19 63.657 111.237 65.1193 99.6794 70.4242C88.1218 75.7291 78.5679 84.5975 72.4187 95.7288C66.2694 106.86 63.8483 119.669 65.5104 132.277C67.1725 144.884 72.8303 156.628 81.6542 165.785C90.4781 174.943 102.004 181.032 114.541 183.161C127.079 185.289 139.969 183.345 151.32 177.612C162.672 171.88 171.888 162.662 177.618 151.309L151.059 137.904C148.194 143.581 143.586 148.19 137.91 151.056C132.234 153.922 125.789 154.895 119.521 153.83C113.252 152.766 107.489 149.721 103.077 145.143C98.6651 140.564 95.8362 134.692 95.0052 128.388C94.1741 122.084 95.3847 115.68 98.4593 110.114C101.534 104.549 106.311 100.115 112.09 97.4621C117.868 94.8097 124.345 94.0785 130.57 95.3758C136.794 96.6731 142.44 99.9306 146.678 104.671L168.856 84.8413Z" fill="#008200"/>
</svg>
